<?xml version="1.0" encoding="UTF-8" standalone="no"?>
<!-- Created with Inkscape (http://www.inkscape.org/) -->

<svg
   width="440"
   height="110"
   viewBox="0 0 440 110"
   version="1.1"
   id="svg1"
   inkscape:version="1.4.2 (f4327f4, 2025-05-13)"
   sodipodi:docname="citizenid-logo2-white.svg"
   inkscape:export-filename="citizenid-logo2-transparent-white.png"
   inkscape:export-xdpi="96"
   inkscape:export-ydpi="96"
   xmlns:inkscape="http://www.inkscape.org/namespaces/inkscape"
   xmlns:sodipodi="http://sodipodi.sourceforge.net/DTD/sodipodi-0.dtd"
   xmlns="http://www.w3.org/2000/svg"
   xmlns:svg="http://www.w3.org/2000/svg">
  <sodipodi:namedview
     id="namedview1"
     pagecolor="#ffffff"
     bordercolor="#000000"
     borderopacity="0.25"
     inkscape:showpageshadow="2"
     inkscape:pageopacity="0.0"
     inkscape:pagecheckerboard="false"
     inkscape:deskcolor="#d1d1d1"
     inkscape:document-units="px"
     inkscape:zoom="2.6060752"
     inkscape:cx="219.29528"
     inkscape:cy="119.33654"
     inkscape:window-width="2130"
     inkscape:window-height="1710"
     inkscape:window-x="1006"
     inkscape:window-y="298"
     inkscape:window-maximized="0"
     inkscape:current-layer="layer3"
     showborder="false"
     borderlayer="true"
     inkscape:export-bgcolor="#ffffff00" />
  <defs
     id="defs1" />
  <g
     inkscape:groupmode="layer"
     id="layer2"
     inkscape:label="Vrstva 2"
     transform="matrix(1.0426097,0,0,1.0426097,-14.062378,-6.6033829)"
     style="display:inline">
    <path
       style="font-weight:200;font-size:115.51px;font-family:'DM Sans';-inkscape-font-specification:'DM Sans Ultra-Light';stroke-width:2.1658;fill:#ffffff"
       d="M 266.17121,106.37134 V 49.078382 h 4.6204 l 0.80857,10.97345 h 0.46204 q 3.00326,-6.23754 8.0857,-9.2408 5.19795,-3.11877 11.551,-3.11877 6.35305,0 11.20447,2.54122 4.85142,2.54122 7.62366,7.85468 2.88775,5.31346 2.88775,13.74569 v 34.537488 h -5.31346 V 72.642422 q 0,-10.3959 -4.38938,-15.24732 -4.38938,-4.96693 -12.7061,-4.96693 -5.54448,0 -10.04937,2.77224 -4.38938,2.65673 -7.04611,7.97019 -2.54122,5.31346 -2.54122,13.168141 v 30.032597 z"
       id="path39"
       inkscape:label="n" />
    <path
       style="font-weight:200;font-size:115.51px;font-family:'DM Sans';-inkscape-font-specification:'DM Sans Ultra-Light';stroke-width:2.1658;fill:#ffffff"
       d="m 233.59733,107.75746 q -8.20121,0 -14.20773,-3.69632 -6.00653,-3.81183 -9.35632,-10.62692 -3.23428,-6.81509 -3.23428,-16.055887 0,-9.240801 3.4653,-15.824871 3.4653,-6.69958 9.58734,-10.28039 6.12203,-3.58081 13.97671,-3.58081 8.43223,0 14.09222,3.81183 5.65999,3.69632 8.54774,9.70284 2.88775,5.89101 2.88775,12.82161 0,1.155101 0,2.194691 0,1.03959 -0.11551,2.54122 h -48.62972 v -4.620401 h 43.66279 q -0.23102,-10.62692 -6.00652,-16.1714 -5.7755,-5.65999 -14.55426,-5.65999 -5.65999,0 -10.62692,2.54122 -4.85142,2.54122 -7.9702,7.73917 -3.11877,5.08244 -3.11877,12.937121 v 2.19469 q 0,8.663247 3.00326,14.323237 3.11878,5.65999 7.9702,8.43223 4.96693,2.65673 10.62692,2.65673 7.16162,0 11.89753,-3.4653 4.73591,-3.58081 7.04611,-9.70284 h 5.19795 q -1.50163,5.08244 -4.73591,9.12529 -3.23428,4.04285 -8.0857,6.35305 -4.85142,2.3102 -11.31998,2.3102 z"
       id="path38"
       inkscape:label="e" />
    <path
       style="font-weight:200;font-size:115.51px;font-family:'DM Sans';-inkscape-font-specification:'DM Sans Ultra-Light';stroke-width:2.1658;fill:#ffffff"
       d="m 160.59506,106.37134 v -4.38938 l 33.84443,-48.514198 h -33.15137 v -4.38938 h 39.15789 v 4.38938 l -33.95994,48.514198 h 34.53749 v 4.38938 z"
       id="path37"
       inkscape:label="z" />
    <path
       style="font-weight:200;font-size:115.51px;font-family:'DM Sans';-inkscape-font-specification:'DM Sans Ultra-Light';stroke-width:2.1658;fill:#ffffff"
       d="M 146.50287,106.37134 V 49.078382 h 5.19795 v 57.292958 z"
       id="path35"
       inkscape:label="i_lower2" />
    <path
       style="font-weight:200;font-size:115.51px;font-family:'DM Sans';-inkscape-font-specification:'DM Sans Ultra-Light';stroke-width:2.1658;fill:#ffffff"
       d="m 130.67803,106.37134 q -4.50489,0 -7.73917,-1.38612 -3.23428,-1.38612 -4.96693,-4.73591 -1.61714,-3.4653 -1.61714,-9.35631 V 53.583272 h -9.93386 v -4.50489 h 9.93386 l 0.80857,-12.47508 h 4.38938 v 12.47508 h 18.25058 v 4.50489 H 121.55274 V 90.893 q 0,6.12203 2.42571,8.54774 2.42571,2.42571 8.31672,2.42571 h 6.12203 v 4.50489 z"
       id="path34"
       inkscape:label="t" />
    <path
       style="font-weight:200;font-size:115.51px;font-family:'DM Sans';-inkscape-font-specification:'DM Sans Ultra-Light';stroke-width:2.1658;fill:#ffffff"
       d="M 94.638956,106.37134 V 49.078382 h 5.19795 v 57.292958 z"
       id="path32"
       inkscape:label="i_lower1" />
    <path
       style="font-weight:200;font-size:115.51px;font-family:'DM Sans';-inkscape-font-specification:'DM Sans Ultra-Light';display:inline;stroke-width:2.1658;fill:#ffffff"
       d="m 149.04409,37.410154 q -1.61714,0 -2.88775,-1.1551 -1.1551,-1.27061 -1.1551,-3.00326 0,-1.84816 1.1551,-2.88775 1.1551,-1.1551 2.88775,-1.1551 1.73265,0 2.88775,1.1551 1.1551,1.03959 1.1551,2.88775 0,1.61714 -1.1551,2.88775 -1.1551,1.27061 -2.88775,1.27061 z"
       id="path36"
       inkscape:label="i_dot2" />
    <path
       style="font-weight:200;font-size:115.51px;font-family:'DM Sans';-inkscape-font-specification:'DM Sans Ultra-Light';display:inline;stroke-width:2.1658;fill:#ffffff"
       d="m 97.180176,37.410154 q -1.61714,0 -2.88775,-1.1551 -1.1551,-1.27061 -1.1551,-3.00326 0,-1.84816 1.1551,-2.88775 1.1551,-1.1551 2.88775,-1.1551 1.73265,0 2.887754,1.1551 1.1551,1.03959 1.1551,2.88775 0,1.61714 -1.1551,2.88775 -1.155104,1.27061 -2.887754,1.27061 z"
       id="path33"
       inkscape:label="i_dot1" />
    <path
       style="display:inline;font-weight:200;font-size:115.51px;font-family:'DM Sans';-inkscape-font-specification:'DM Sans Ultra-Light';stroke-width:2.1658;fill:#ffffff"
       d="m 52.246777,107.75746 q -11.43549,0 -19.98323,-5.19795 -8.54774,-5.31346 -13.28365,-14.66977 -4.620401,-9.471817 -4.620401,-21.946898 0,-12.47508 4.620401,-21.83139 4.73591,-9.47182 13.28365,-14.66977 8.54774,-5.31346 20.09874,-5.31346 13.16814,0 21.25384,6.12203 8.201211,6.00652 10.857941,17.09548 h -5.89101 q -1.96367,-8.31672 -8.547741,-13.39916 -6.46856,-5.08244 -17.78854,-5.08244 -9.58733,0 -16.97997,4.38938 -7.27713,4.38938 -11.43549,12.82161 -4.04285,8.31672 -4.04285,19.86772 0,11.551001 4.04285,19.867718 4.15836,8.31672 11.43549,12.82161 7.39264,4.38938 17.09548,4.38938 11.08896,0 17.67303,-5.08244 6.584071,-5.19795 8.547741,-13.51467 h 5.89101 q -2.65673,11.08896 -10.857941,17.21099 -8.0857,6.12203 -21.36935,6.12203 z"
       id="text1"
       inkscape:label="C" />
    <path
       id="path1"
       style="display:inline;vector-effect:none;fill:#f39c12;fill-opacity:1;stroke-width:0.767777;stop-color:#000000"
       d="m 67.937939,79.981652 -1.93824,12.393276 -10.82153,1.93823 10.82153,1.938206 1.93822,12.393286 1.93823,-12.393286 68.614151,-1.938206 -68.614151,-1.93823 z"
       sodipodi:nodetypes="ccccccccc"
       inkscape:label="star" />
    <path
       id="path2"
       style="display:inline;font-weight:200;font-size:115.51px;font-family:'DM Sans';-inkscape-font-specification:'DM Sans Ultra-Light';stroke-width:2.1658;fill:#ffffff"
       inkscape:label="C"
       d="M 70.533528 28.239932 L 70.533528 34.341283 C 74.641058 37.679169 77.324192 42.01385 78.583116 47.34576 L 84.474657 47.34576 C 82.703504 39.95312 79.084461 34.254334 73.616987 30.249987 C 72.644539 29.513705 71.616246 28.843387 70.533528 28.239932 z M 78.583116 84.424067 C 77.324192 89.755978 74.641058 94.126221 70.533528 97.535323 L 70.533528 103.64229 C 71.617369 103.03938 72.645662 102.37142 73.616987 101.63599 C 79.084461 97.554632 82.703504 91.816707 84.474657 84.424067 L 78.583116 84.424067 z " />
  </g>
  <g
     inkscape:groupmode="layer"
     id="layer3"
     inkscape:label="Vrstva 3"
     transform="matrix(0.94286721,0,0,0.94286721,69.416602,226.7911)"
     style="display:inline">
    <path
       style="font-weight:800;font-size:115.51px;font-family:'DM Sans';-inkscape-font-specification:'DM Sans Ultra-Bold';fill:#f2f2f2;stroke-width:0;opacity:1"
       d="m 299.52627,-129.83463 v -89.51702 h 31.45884 q 15.60154,0 25.83205,5.62678 10.23052,5.49891 15.09002,15.60154 4.98737,9.97475 4.98737,23.53018 0,13.42756 -4.98737,23.53019 -4.8595,10.10264 -15.09002,15.72942 -10.23051,5.49891 -25.83205,5.49891 z m 17.90341,-15.34578 h 12.53237 q 10.86993,0 17.13613,-3.4528 6.26619,-3.58068 8.82381,-10.10264 2.68552,-6.64983 2.68552,-15.8573 0,-9.20746 -2.68552,-15.72942 -2.55762,-6.64983 -8.82381,-10.23051 -6.2662,-3.58068 -17.13613,-3.58068 h -12.53237 z"
       id="path5-6"
       inkscape:label="D_under" />
    <path
       style="font-weight:800;font-size:115.51px;font-family:'DM Sans';-inkscape-font-specification:'DM Sans Ultra-Bold';display:inline;fill:#f2f2f2;stroke-width:0;opacity:1"
       d="m 277.65843,-200.80884 q -4.8595,0 -7.92865,-2.8134 -3.06916,-2.94127 -3.06916,-7.16136 0,-4.34797 3.06916,-7.16136 3.06915,-2.94127 7.92865,-2.94127 4.8595,0 7.92865,2.94127 3.06915,2.81339 3.06915,7.16136 0,4.22009 -3.06915,7.16136 -3.06915,2.8134 -7.92865,2.8134 z"
       id="path4-1"
       inkscape:label="i_dot" />
    <path
       style="font-weight:800;font-size:115.51px;font-family:'DM Sans';-inkscape-font-specification:'DM Sans Ultra-Bold';fill:#f2f2f2;stroke-width:0;opacity:1"
       d="m 268.70673,-129.83463 v -63.42921 h 17.9034 v 63.42921 z"
       id="text2-8"
       inkscape:label="i_bottom" />
    <path
       id="path31-12"
       style="display:inline;vector-effect:none;fill:#f39c12;fill-opacity:1;stroke-width:1.9628;stop-color:#000000"
       d="m 350.64083,-234.01193 4.95506,31.68313 27.66502,4.95504 -27.66502,4.95498 -4.95499,31.68313 -4.95504,-31.68313 -316.639118,-4.95498 316.639118,-4.95504 z"
       sodipodi:nodetypes="ccccccccc"
       inkscape:label="star" />
    <path
       id="path11"
       style="font-weight:800;font-size:115.51px;font-family:'DM Sans';-inkscape-font-specification:'DM Sans Ultra-Bold';fill:#f2f2f2;stroke-width:0;opacity:1"
       d="m 299.52558,-219.35099 v 89.51533 h 30.49507 v -15.34376 c -0.0196,2e-5 -0.0387,0 -0.0583,0 H 317.4296 v -58.95539 h 12.53275 c 0.0196,0 0.0388,-2e-5 0.0583,0 v -15.21618 z"
       inkscape:label="D_over" />
  </g>
</svg>
